<svg xmlns="http://www.w3.org/2000/svg" viewBox="0 0 90.19 103.5"><defs><style>.cls-1{fill:#fff;}</style></defs><title>2-3</title><g id="Layer_2" data-name="Layer 2"><g id="Layer_1-2" data-name="Layer 1"><path class="cls-1" d="M41.94,103.5a5.78,5.78,0,0,1-4.05-9.86l.09-.08a5.71,5.71,0,0,1,4-1.61h6.27a5.75,5.75,0,0,1,5.15,3.2l.09.18.2-.05A34.13,34.13,0,0,0,77.08,74l.34-.93-.74.66A15.14,15.14,0,0,1,66.6,77.55a1.34,1.34,0,0,1-1.36-1.33V48.46a1.33,1.33,0,0,1,1.33-1.29,15.31,15.31,0,0,1,12.1,6l.45.59V45.09c0-.4,0-.81,0-1.22a34.19,34.19,0,0,0-34-33.42h-.62A34,34,0,0,0,11.07,45.1v8.62l.45-.59a15.36,15.36,0,0,1,1.34-1.54,15.07,15.07,0,0,1,10.73-4.45,1.34,1.34,0,0,1,1.35,1.33V76.24a1.34,1.34,0,0,1-1.33,1.33A15.17,15.17,0,0,1,9.12,67L9,66.67l-.28.2a5.52,5.52,0,0,1-7.12-.6A5.56,5.56,0,0,1,0,62.36V45.09a45.1,45.1,0,0,1,90.19,0V62.36a5.53,5.53,0,0,1-5.54,5.54h0a5.52,5.52,0,0,1-2.83-.78l-.32-.19-.05.38A36.58,36.58,0,0,1,54.13,97.95L54,98v.18a5.8,5.8,0,0,1-5.74,5.33Zm0-8.84a3.07,3.07,0,0,0-2.11.83l-.07.07a3.06,3.06,0,0,0-.9,2.18A3.08,3.08,0,0,0,42,100.82h6.26a3.08,3.08,0,1,0,0-6.16ZM22,49.92a12.57,12.57,0,0,0-7.27,3.57,12.43,12.43,0,0,0-3.67,8.78v.12A12.59,12.59,0,0,0,22,74.81l.28,0v-25ZM67.9,74.84l.28,0a12.55,12.55,0,0,0,0-24.89l-.28,0ZM44.44,2A42.43,42.43,0,0,0,2.69,45.09V62.35a2.87,2.87,0,0,0,4.89,2,2.84,2.84,0,0,0,.84-2V45.09a36.69,36.69,0,0,1,73.38,0V62.32A2.88,2.88,0,0,0,84.48,65h.19a2.88,2.88,0,0,0,2.86-2.69V45.09c0-.45,0-.91,0-1.36A42.62,42.62,0,0,0,45.13,2Z"/></g></g></svg>