<svg xmlns="http://www.w3.org/2000/svg" viewBox="0 0 103.7 78.59"><defs><style>.cls-1{fill:#fff;}</style></defs><title>3-1</title><g id="Layer_2" data-name="Layer 2"><g id="Layer_1-2" data-name="Layer 1"><path class="cls-1" d="M51.79,78.59c-20.15,0-31.13-12-34-15.61l-.12-.14a1.25,1.25,0,0,1-.21-.67V36.74L9.77,33V51.66l.41.16a5.18,5.18,0,0,1,.12,9.61l-.57.22,5.33,16.93H1.68L7,61.67l-.55-.23a5.18,5.18,0,0,1,.11-9.62L7,51.66V31.57L3.12,29.71C.41,28.29,0,26.6,0,25.72s.41-2.68,3.12-4L45.94,1.29A14.91,14.91,0,0,1,52.33,0a14.89,14.89,0,0,1,6.38,1.28l41.86,20.45c2.83,1.36,3,3.25,3.13,4.06s-.41,2.61-3.12,3.91L86,36.86v25.3a1.3,1.3,0,0,1-.25.72C83.72,65.55,72.63,78.59,51.79,78.59ZM20.11,61.79l.14.18a40.72,40.72,0,0,0,31.54,14.2A40.71,40.71,0,0,0,83.33,62l.14-.18V37.91L58.72,50a14,14,0,0,1-6.45,1.38,15.57,15.57,0,0,1-6.34-1.26L20.11,37.8ZM51.88,24.55a1.24,1.24,0,0,1,1.19,1.12,1.16,1.16,0,0,1-.25.85A1.26,1.26,0,0,1,52,27L12.8,31.59,46.94,48A12.6,12.6,0,0,0,52.32,49a12,12,0,0,0,5.31-1.07L83.9,35.23,84,35a.75.75,0,0,1,.74-.36h.06l.15,0,14.52-7.14a3.94,3.94,0,0,0,1.59-1.33l.09-.15v-.18c0-.39-.22-1.14-1.71-1.8L57.61,3.61a12.74,12.74,0,0,0-5.34-1,13.06,13.06,0,0,0-5.2,1L4.24,24.17C3,24.73,2.55,25.4,2.55,25.84v0l0,.12a3,3,0,0,0,1.69,1.51l4.48,2.12,43-5.07Z"/></g></g></svg>