<svg xmlns="http://www.w3.org/2000/svg" viewBox="0 0 81.25 104"><defs><style>.cls-1{fill:#fff;}</style></defs><title>4-1</title><g id="Layer_2" data-name="Layer 2"><g id="Layer_1-2" data-name="Layer 1"><path class="cls-1" d="M18.75,41a1.25,1.25,0,0,1,0-2.5H62.5a1.25,1.25,0,0,1,0,2.5Z"/><path class="cls-1" d="M18.75,27a1.25,1.25,0,0,1,0-2.5h17.5a1.25,1.25,0,0,1,0,2.5Z"/><path class="cls-1" d="M18.75,55a1.25,1.25,0,0,1,0-2.5H62.5a1.25,1.25,0,0,1,0,2.5Z"/><path class="cls-1" d="M18.75,69a1.25,1.25,0,0,1,0-2.5H62.5a1.25,1.25,0,0,1,0,2.5Z"/><path class="cls-1" d="M18.75,83a1.25,1.25,0,0,1,0-2.5H62.5a1.25,1.25,0,0,1,0,2.5Z"/><path class="cls-1" d="M0,104V0H56L81.25,25.23V104Zm2.5-2.5H78.75V27H54.25V2.5H2.5Zm54.25-77H77L56.75,4.27Z"/></g></g></svg>