<?xml version="1.0" encoding="utf-8"?>
<!-- Generator: Adobe Illustrator 21.0.2, SVG Export Plug-In . SVG Version: 6.00 Build 0)  -->
<svg version="1.1" id="Capa_1" xmlns="http://www.w3.org/2000/svg" xmlns:xlink="http://www.w3.org/1999/xlink" x="0px" y="0px"
	 viewBox="0 0 512 512" style="enable-background:new 0 0 512 512;" xml:space="preserve">
<style type="text/css">
	.st0{fill:#FFFFFF;}
</style>
<g>
	<g>
		<path class="st0" d="M262.1,343.8c-1.6-1.6-4-2.4-6-2.4c-2.4,0-4.4,0.8-6,2.4c-1.6,1.6-2.4,4-2.4,6c0,2,0.8,4.4,2.4,6
			c1.6,1.6,4,2.4,6,2.4c2.4,0,4.4-0.8,6-2.4c1.6-1.6,2.4-4,2.4-6C264.9,347.8,263.7,345.4,262.1,343.8z"/>
	</g>
</g>
<g>
	<g>
		<path class="st0" d="M431.6,79.6H380V50.1c0-9.6-8-17.6-17.6-17.6h-213c-9.6,0-17.6,8-17.6,17.6v29.6H80.3
			C67.1,79.6,56,90.4,56,104v258.5c0,13.2,10.8,24.4,24.4,24.4H213v40.4c-22,2.4-39.2,20.8-39.2,43.6c0,4.8,4,8.8,8.8,8.8h146.7
			c4.8,0,8.8-4,8.8-8.8c0-22.8-17.2-41.2-39.2-43.6v-40.4h132.7c13.2,0,24.4-10.8,24.4-24.4V104C455.9,90.4,445.2,79.6,431.6,79.6z
			 M73.9,104c0-3.6,3.2-6.8,6.8-6.8h51.5v58.3c0,4.8,4,8.8,8.8,8.8c4.8,0,8.8-4,8.8-8.8V50.1h213v263.3h-213v-94.7
			c0-4.8-4-8.8-8.8-8.8c-4.8,0-8.8,4-8.8,8.8v94.7H73.9L73.9,104L73.9,104z M319.3,461.6H193c3.6-10,13.2-17.6,24.8-17.6h4.4h67.9
			h4.4C305.7,444.1,315.7,451.7,319.3,461.6z M231,426.9v-40h50.7v40H231z M438.4,362.5c0,3.6-3.2,6.8-6.8,6.8H80.3
			c-3.6,0-6.8-3.2-6.8-6.8V331h67.1h230.2H438v31.6H438.4z M438.4,313.4H380V97.2h51.5c3.6,0,6.8,3.2,6.8,6.8V313.4L438.4,313.4z"/>
	</g>
</g>
<g>
	<g>
		<path class="st0" d="M256.1,67.2c-35.6,0-64.7,28.8-64.7,64.7c0,18.4,7.6,34.8,20,46.8c0.4,0.4,0.8,0.8,1.2,0.8
			c11.6,10.4,26.8,16.8,43.6,16.8c16.8,0,32-6.4,43.6-16.8c0.4-0.4,0.8-0.8,1.2-0.8c12.4-11.6,20-28.4,20-46.8
			C320.9,96.4,291.7,67.2,256.1,67.2z M256.1,179.1c-10,0-19.6-3.2-27.2-8.4c6-9.2,16-14.8,27.2-14.8c11.2,0,21.2,5.6,27.2,14.8
			C275.7,175.9,266.1,179.1,256.1,179.1z M247.4,129.2v-4.4c0-4.8,4-8.8,8.8-8.8c4.8,0,8.8,4,8.8,8.8v4.4c0,4.8-4,8.8-8.8,8.8
			C251.4,138.4,247.4,134.4,247.4,129.2z M295.7,157.5c-4.4-6-10.4-10.8-17.2-14.4c2.8-4,4-8.8,4-14.4v-4.4
			c0-14.4-12-26.4-26.4-26.4c-14.4,0-26.4,12-26.4,26.4v4.4c0,5.2,1.6,10,4,14.4c-6.8,3.2-12.4,8.4-17.2,14.4
			c-4.8-7.6-7.6-16.4-7.6-25.6c0-26,21.2-47.2,47.2-47.2c26,0,47.2,21.2,47.2,47.2C303.3,141.6,300.5,150.4,295.7,157.5z"/>
	</g>
</g>
<g>
	<g>
		<path class="st0" d="M147.1,179.1c-1.6-1.6-4-2.4-6-2.4c-2.4,0-4.4,0.8-6,2.4c-1.6,1.6-2.4,4-2.4,6c0,2.4,0.8,4.4,2.4,6
			c1.6,1.6,4,2.4,6,2.4c2.4,0,4.4-0.8,6-2.4c1.6-1.6,2.4-4,2.4-6C149.9,182.7,148.7,180.7,147.1,179.1z"/>
	</g>
</g>
<g>
	<g>
		<path class="st0" d="M310.1,217.5H209c-4.8,0-8.8,4-8.8,8.8c0,4.8,4,8.8,8.8,8.8h101.1c4.8,0,8.8-4,8.8-8.8
			C318.9,221.5,314.9,217.5,310.1,217.5z"/>
	</g>
</g>
<g>
	<g>
		<path class="st0" d="M316.5,258.2c-1.6-1.6-4-2.4-6-2.4c-2.4,0-4.4,0.8-6,2.4c-1.6,1.6-2.4,4-2.4,6c0,2.4,0.8,4.4,2.4,6
			c1.6,1.6,4,2.4,6,2.4c2.4,0,4.4-0.8,6-2.4c1.6-1.6,2.4-4,2.4-6C318.9,262.2,318.1,259.8,316.5,258.2z"/>
	</g>
</g>
<g>
	<g>
		<path class="st0" d="M276.9,255.9H209c-4.8,0-8.8,4-8.8,8.8s4,8.8,8.8,8.8h67.9c4.8,0,8.8-4,8.8-8.8S281.7,255.9,276.9,255.9z"/>
	</g>
</g>
</svg>
