<svg xmlns="http://www.w3.org/2000/svg" viewBox="0 0 85 91.75"><title>1-2</title><g id="Layer_2" data-name="Layer 2"><g id="Layer_1-2" data-name="Layer 1"><path d="M78.86,25.21H6.14A6.15,6.15,0,0,1,0,19.07V6.14A6.15,6.15,0,0,1,6.14,0H78.86A6.15,6.15,0,0,1,85,6.14V19.07A6.15,6.15,0,0,1,78.86,25.21ZM6.14,3A3.11,3.11,0,0,0,3,6.14V19.07a3.11,3.11,0,0,0,3.11,3.11H78.86A3.11,3.11,0,0,0,82,19.07V6.14A3.11,3.11,0,0,0,78.86,3Z"/><circle cx="10.58" cy="12.61" r="2.31"/><circle cx="21.77" cy="12.61" r="2.31"/><circle cx="32.95" cy="12.61" r="2.31"/><path d="M78.86,47.39H6.14A6.15,6.15,0,0,1,0,41.25V28.32a6.15,6.15,0,0,1,6.14-6.14H78.86A6.15,6.15,0,0,1,85,28.32V41.25A6.15,6.15,0,0,1,78.86,47.39ZM6.14,25.21A3.11,3.11,0,0,0,3,28.32V41.25a3.11,3.11,0,0,0,3.11,3.11H78.86A3.11,3.11,0,0,0,82,41.25V28.32a3.11,3.11,0,0,0-3.11-3.11Z"/><circle cx="10.58" cy="34.79" r="2.31"/><circle cx="21.77" cy="34.79" r="2.31"/><circle cx="32.95" cy="34.79" r="2.31"/><path d="M78.86,69.57H6.14A6.15,6.15,0,0,1,0,63.43V50.5a6.15,6.15,0,0,1,6.14-6.14H78.86A6.15,6.15,0,0,1,85,50.5V63.43A6.15,6.15,0,0,1,78.86,69.57ZM6.14,47.39A3.11,3.11,0,0,0,3,50.5V63.43a3.11,3.11,0,0,0,3.11,3.11H78.86A3.11,3.11,0,0,0,82,63.43V50.5a3.11,3.11,0,0,0-3.11-3.11Z"/><circle cx="10.58" cy="56.96" r="2.31"/><circle cx="21.77" cy="56.96" r="2.31"/><circle cx="32.95" cy="56.96" r="2.31"/><path d="M78.86,91.75H6.14A6.15,6.15,0,0,1,0,85.61V72.68a6.15,6.15,0,0,1,6.14-6.14H78.86A6.15,6.15,0,0,1,85,72.68V85.61A6.15,6.15,0,0,1,78.86,91.75ZM6.14,69.57A3.11,3.11,0,0,0,3,72.68V85.61a3.11,3.11,0,0,0,3.11,3.11H78.86A3.11,3.11,0,0,0,82,85.61V72.68a3.11,3.11,0,0,0-3.11-3.11Z"/><circle cx="10.58" cy="79.14" r="2.31"/><circle cx="21.77" cy="79.14" r="2.31"/><circle cx="32.95" cy="79.14" r="2.31"/></g></g></svg>