<svg xmlns="http://www.w3.org/2000/svg" viewBox="0 0 103 103"><title>1-3</title><g id="Layer_2" data-name="Layer 2"><g id="Layer_1-2" data-name="Layer 1"><path d="M46.8,103A4.85,4.85,0,0,1,42,98.95l-1.42-8.52-1-.32a40.39,40.39,0,0,1-6.74-2.77l-.94-.49-7.11,5.06a4.77,4.77,0,0,1-2.8.9,4.82,4.82,0,0,1-3.43-1.43l-6.63-6.63a4.83,4.83,0,0,1-.53-6.25l5-7-.51-.95A39.44,39.44,0,0,1,13,63.67l-.31-1L4.06,61.2A4.85,4.85,0,0,1,0,56.4V47a4.85,4.85,0,0,1,4.05-4.79l8.44-1.42.31-1a39.76,39.76,0,0,1,2.83-7l.49-.94-5.06-7.11a4.84,4.84,0,0,1,.53-6.25l6.65-6.62a4.85,4.85,0,0,1,6.25-.53l7,5,.95-.51A39.53,39.53,0,0,1,39.35,13l1-.31,1.47-8.6A4.85,4.85,0,0,1,46.62,0H56a4.85,4.85,0,0,1,4.79,4.05L62.2,12.5l1,.31a40.12,40.12,0,0,1,7.2,3l.94.5,7-5a4.76,4.76,0,0,1,2.8-.9,4.82,4.82,0,0,1,3.43,1.43l6.63,6.63a4.83,4.83,0,0,1,.53,6.25l-5,7,.5.94a40.69,40.69,0,0,1,2.88,7l.31,1L99,42a4.76,4.76,0,0,1,4,4.77v9.39A4.85,4.85,0,0,1,98.95,61l-8.52,1.42-.31,1a40.28,40.28,0,0,1-2.88,7l-.49.94,5,7a4.84,4.84,0,0,1-.53,6.25L84.6,91.23a4.85,4.85,0,0,1-6.25.53l-7-5-.94.5a40.67,40.67,0,0,1-7,2.88l-1,.31L61,98.94A4.85,4.85,0,0,1,56.18,103ZM31.85,84.12a1.34,1.34,0,0,1,.66.17,38.62,38.62,0,0,0,9.54,3.91,1.27,1.27,0,0,1,.93,1l1.55,9.33a2.28,2.28,0,0,0,2.28,1.93h9.36a2.29,2.29,0,0,0,2.28-1.95L60,89.22a1.24,1.24,0,0,1,.92-1,37.37,37.37,0,0,0,9.78-4.06A1.29,1.29,0,0,1,71.4,84a1.22,1.22,0,0,1,.72.23l7.72,5.5a2.24,2.24,0,0,0,1.33.43,2.27,2.27,0,0,0,1.64-.68l6.63-6.63a2.34,2.34,0,0,0,.26-3l-5.5-7.75a1.28,1.28,0,0,1-.05-1.4,37.28,37.28,0,0,0,4.05-9.76,1.27,1.27,0,0,1,1-.93l9.33-1.55a2.25,2.25,0,0,0,1.16-.55h.72l.07-1.67V46.82a2.29,2.29,0,0,0-1.95-2.28L89.25,43a1.24,1.24,0,0,1-1-.92,37.38,37.38,0,0,0-4.06-9.78,1.27,1.27,0,0,1,0-1.38l5.5-7.72a2.36,2.36,0,0,0-.25-3l-6.63-6.63A2.3,2.3,0,0,0,80,13.23l-7.79,5.6a1.26,1.26,0,0,1-.73.23,1.31,1.31,0,0,1-.66-.18,37.83,37.83,0,0,0-10-4.1,1.28,1.28,0,0,1-.94-1L58.3,4.46A2.28,2.28,0,0,0,56,2.53H46.66a2.29,2.29,0,0,0-2.28,2l-1.6,9.38a1.32,1.32,0,0,1-1,1A36.8,36.8,0,0,0,32.1,19a1.32,1.32,0,0,1-1.41-.06L23,13.46A2.24,2.24,0,0,0,21.69,13a2.27,2.27,0,0,0-1.64.69l-6.62,6.62a2.34,2.34,0,0,0-.26,3l5.55,7.8a1.26,1.26,0,0,1,.07,1.38,37.21,37.21,0,0,0-4,9.79,1.29,1.29,0,0,1-1,.95L4.48,44.76A2.28,2.28,0,0,0,2.56,47V56.4a2.29,2.29,0,0,0,1.95,2.28l9.38,1.6a1.32,1.32,0,0,1,1,1A36.8,36.8,0,0,0,19,71a1.31,1.31,0,0,1-.06,1.41L13.48,80a2.37,2.37,0,0,0,.25,3l6.63,6.63a2.29,2.29,0,0,0,2.86.33l7.9-5.61A1.24,1.24,0,0,1,31.85,84.12Z"/><path d="M51.51,72.74A21.25,21.25,0,1,1,72.76,51.49,21.27,21.27,0,0,1,51.51,72.74Zm0-39.94A18.69,18.69,0,1,0,70.2,51.49,18.71,18.71,0,0,0,51.51,32.8Z"/></g></g></svg>