<svg xmlns="http://www.w3.org/2000/svg" viewBox="0 0 90.13 103.25"><title>1-4</title><g id="Layer_2" data-name="Layer 2"><g id="Layer_1-2" data-name="Layer 1"><path d="M40.69,68.25a1.32,1.32,0,0,1-.93-.39l-17.5-17.5a1.31,1.31,0,0,1,1.86-1.86L40.69,65.08l29.69-29.7a1.31,1.31,0,0,1,1.86,1.86L41.61,67.87A1.3,1.3,0,0,1,40.69,68.25Z"/><path d="M45.06,103.25a1.29,1.29,0,0,1-.38-.06C29.1,98.35,0,81.45,0,62.56V14.44a1.32,1.32,0,0,1,.93-1.26L44.68.06a1.31,1.31,0,0,1,.75,0L89.19,13.18a1.31,1.31,0,0,1,.94,1.26V62.56c0,18.88-29.1,35.78-44.67,40.63A1.29,1.29,0,0,1,45.06,103.25ZM2.63,15.41V62.56c0,15.84,24.49,32.2,42.17,37.92l.27.09.27-.09C63,94.76,87.5,78.41,87.5,62.56V15.41L45.06,2.68Z"/></g></g></svg>