<?xml version="1.0" encoding="utf-8"?>
<!-- Generator: Adobe Illustrator 21.0.2, SVG Export Plug-In . SVG Version: 6.00 Build 0)  -->
<svg version="1.1" id="Capa_1" xmlns="http://www.w3.org/2000/svg" xmlns:xlink="http://www.w3.org/1999/xlink" x="0px" y="0px"
	 viewBox="0 0 512 512" style="enable-background:new 0 0 512 512;" xml:space="preserve">
<g>
	<g>
		<path d="M240.4,334.9c-1.6-1.6-3.6-2.4-5.6-2.4s-4,0.8-5.6,2.4s-2.4,3.6-2.4,5.6s0.8,4,2.4,5.6c1.6,1.6,3.6,2.4,5.6,2.4
			s4-0.8,5.6-2.4s2.4-3.6,2.4-5.6S242,336.5,240.4,334.9z"/>
	</g>
</g>
<g>
	<g>
		<path d="M406,265.3c-4.4,0-8,3.6-8,8v34.4H264v-19.2c0-29.6-22.4-54.4-51.2-58c5.6-7.2,9.2-16,9.2-25.6v-54.8c0-4.4-3.6-8-8-8
			h-40.8c-18,0-32.8,14.8-32.8,32.8v30c0,9.6,3.6,18.8,9.2,25.6c-28.8,3.6-51.2,28-51.2,58v19.2H72V120.2c0-3.2,2.8-6,6-6h162
			c4.4,0,8-3.6,8-8s-3.6-8-8-8H77.6c-12,0-21.6,9.6-21.6,21.6v231.6c0,12,9.6,21.6,21.6,21.6h118.8v36c-19.6,2-35.2,18.8-35.2,38.8
			c0,4.4,3.6,8,8,8h131.2c4.4,0,8-3.6,8-8c0-20.4-15.6-36.8-35.2-38.8v-36H392c12,0,21.6-9.6,21.6-21.6v-78.4
			C414,269,410.4,265.3,406,265.3z M156,174.9c0-9.6,7.6-17.2,17.2-17.2h33.2v12.4c0,6-5.2,11.2-11.2,11.2H156V174.9z M156,196.9
			h39.2c4,0,8-0.8,11.2-2.4v10.4l0,0c0,14-11.2,25.2-25.2,25.2c-14,0-25.2-11.2-25.2-25.2V196.9z M190,245.7l-9.2,9.2l-9.2-9.2H190
			L190,245.7z M114,288.5c0-21.6,16-39.2,36.4-42.4l25.2,25.2c1.6,1.6,3.6,2.4,5.6,2.4c2,0,4-0.8,5.6-2.4l25.2-25.2
			c20.4,3.2,36.4,20.8,36.4,42.4v19.2H114V288.5z M291.2,440.5H178.4c3.2-9.2,12-15.6,22-15.6h4h60.8h4
			C279.6,424.9,288,431.3,291.2,440.5z M212.4,409.3v-36h45.2v36H212.4z M398,351.7c0,3.2-2.8,6-6,6H77.6c-3.2,0-6-2.8-6-6v-28.4
			H398V351.7z"/>
	</g>
</g>
<g>
	<g>
		<path d="M411.6,238.6c-1.6-1.6-3.6-2.4-5.6-2.4s-4,0.8-5.6,2.4c-1.6,1.6-2.4,3.6-2.4,5.6s0.8,4,2.4,5.6s3.6,2.4,5.6,2.4
			s4-0.8,5.6-2.4c1.6-1.6,2.4-3.6,2.4-5.6C414,241.7,412.8,239.7,411.6,238.6z"/>
	</g>
</g>
<g>
	<g>
		<path d="M406,93h-58.4c-4.4,0-8,3.6-8,8s3.6,8,8,8H406c4.4,0,8-3.6,8-8S410.4,93,406,93z"/>
	</g>
</g>
<g>
	<g>
		<path d="M320.8,95.4c-1.6-1.6-3.6-2.4-5.6-2.4s-4,0.8-5.6,2.4s-2.4,3.6-2.4,5.6s0.8,4,2.4,5.6s3.6,2.4,5.6,2.4s4-0.8,5.6-2.4
			c1.6-1.6,2.4-3.6,2.4-5.6S322.4,96.6,320.8,95.4z"/>
	</g>
</g>
<g>
	<g>
		<path d="M406,127.4h-90.8c-4.4,0-8,3.6-8,8s3.6,8,8,8H406c4.4,0,8-3.6,8-8C414,130.6,410.4,127.4,406,127.4z"/>
	</g>
</g>
<g>
	<g>
		<path d="M406,161.7h-90.8c-4.4,0-8,3.6-8,8s3.6,8,8,8H406c4.4,0,8-3.6,8-8S410.4,161.7,406,161.7z"/>
	</g>
</g>
<g>
	<g>
		<path d="M416.8,56.2H304.4c-21.6,0-39.2,17.6-39.2,39.2v83.6c0,20,15.2,36.8,34.8,38.8v20.4c0,3.2,2,6,4.8,7.2
			c0.8,0.4,2,0.4,2.8,0.4c2,0,4-0.8,5.6-2.4l25.6-25.6h78c21.6,0,39.2-17.6,39.2-39.2V95C456,73.8,438.4,56.2,416.8,56.2z
			 M440.4,178.9c0,12.8-10.4,23.6-23.6,23.6h-81.2c-2,0-4,0.8-5.6,2.4l-14.4,14.4v-9.2c0-4.4-3.6-8-8-8h-3.2
			c-12.8,0-23.6-10.4-23.6-23.6V95c0-12.8,10.4-23.6,23.6-23.6h112.4c12.8,0,23.6,10.4,23.6,23.6L440.4,178.9L440.4,178.9z"/>
	</g>
</g>
</svg>
