<svg xmlns="http://www.w3.org/2000/svg" viewBox="0 0 86.45 104"><title>2-1</title><g id="Layer_2" data-name="Layer 2"><g id="Layer_1-2" data-name="Layer 1"><path d="M43.23,104A41.47,41.47,0,0,1,20.09,28.1l.33-.22-.15-.37a6.43,6.43,0,0,1-.4-3.16L21,15.72,1.89,12.19a2.32,2.32,0,0,1,0-4.56L43,0l.21,0,.21,0L84.56,7.63a2.32,2.32,0,0,1,0,4.56l-6.87,1.27v13l.34.12a4.65,4.65,0,0,1,1.92,7.57l-.32.34.32.34A4.63,4.63,0,0,1,81.2,38v7.85l0,0a41.49,41.49,0,0,1-38,58.13Zm1.14-2.33.57-.08c5-.72,9.77-4.67,13.41-11.11a43,43,0,0,0,2.56-5.4l.23-.57-.61-.1A104.64,104.64,0,0,0,44.88,83h-.51ZM41.58,83A104.63,104.63,0,0,0,25.93,84.4l-.61.1.23.57a43.12,43.12,0,0,0,2.55,5.4c3.64,6.44,8.4,10.39,13.41,11.11l.57.08V83Zm-19,2c-3,.61-6,1.35-8.9,2.2l-.74.22.5.59A39.25,39.25,0,0,0,31.26,99.84l2.11.68L31.75,99a31.2,31.2,0,0,1-5.64-7.39,45.68,45.68,0,0,1-2.92-6.28l-.15-.4Zm40.64.31a45.71,45.71,0,0,1-2.92,6.28A31.18,31.18,0,0,1,54.7,99l-1.61,1.52,2.11-.68A39.25,39.25,0,0,0,73,88l.5-.59-.74-.22c-2.9-.86-5.9-1.6-8.9-2.2l-.42-.08Zm3.89-21.17a65.92,65.92,0,0,1-2.82,18.06l-.16.53.54.11c3.33.69,6.66,1.54,9.9,2.54l.34.11.21-.29a39,39,0,0,0,7.22-21l0-.52H67.16Zm-63.08,0a39,39,0,0,0,7.22,21l.21.29.34-.11c3.24-1,6.58-1.86,9.9-2.54l.54-.11-.16-.53a66,66,0,0,1-2.82-18.06v-.49H4.05Zm40.3,16.49h.49a106.81,106.81,0,0,1,16.61,1.56l.43.08L62,81.9a63.32,63.32,0,0,0,2.82-17.72v-.51H44.37ZM21.59,64.18A63.34,63.34,0,0,0,24.42,81.9l.13.42.43-.08a106.92,106.92,0,0,1,16.61-1.55h.49v-17H21.58ZM71.26,40.62c-2.14.58-4.34,1.11-6.56,1.57l-.54.11.16.53a67,67,0,0,1,2.82,18.06v.49H82.4l0-.52A38.85,38.85,0,0,0,79.72,48.2l-.12-.32H73a1.15,1.15,0,0,1-1.14-1.14V40.45ZM61.47,42.8a106.93,106.93,0,0,1-16.61,1.56h-.49v17h20.5v-.51A64.37,64.37,0,0,0,62,43.14l-.13-.42Zm-37,.34A64.4,64.4,0,0,0,21.6,60.87v.51h20.5v-17h-.49A106.88,106.88,0,0,1,25,42.81l-.43-.08ZM11.27,39.83a39,39,0,0,0-7.19,21l0,.52H19.3v-.49a67,67,0,0,1,2.82-18.06l.16-.53-.54-.11c-3.33-.68-6.67-1.54-9.93-2.55l-.34-.11Zm65.28-4.22A2.37,2.37,0,0,0,74.18,38v7.62h4.73V38A2.37,2.37,0,0,0,76.55,35.61ZM45.85,35c-.35.08-.69.14-1,.19l-.43.06v6.8h.51a104.6,104.6,0,0,0,15.65-1.43l.61-.1L60.91,40a40.59,40.59,0,0,0-3.66-7.23l-.19-.29ZM29.21,32.74A40.51,40.51,0,0,0,25.54,40l-.22.57.61.1a104.53,104.53,0,0,0,15.65,1.43h.51v-6.8l-.43-.06c-.35,0-.7-.11-1-.19L29.4,32.45ZM64.41,30a6.44,6.44,0,0,1-2.75,1.39l-2.23.51.36.59a44.41,44.41,0,0,1,3.47,7.23l.15.4.42-.08c2.56-.52,5.15-1.14,7.71-1.87l.34-.1,0-.36a4.62,4.62,0,0,1,.24-1.24l.1-.28L72,36a39.41,39.41,0,0,0-7-6l-.32-.21Zm-43,0a39.5,39.5,0,0,0-8,7.06l-.5.59.74.22c2.9.86,5.91,1.6,8.92,2.21l.42.08.15-.4a44.41,44.41,0,0,1,3.47-7.23L27,31.9l-2.23-.51A6.45,6.45,0,0,1,22,30l-.29-.25Zm55.1-1.36A2.36,2.36,0,1,0,78.91,31,2.37,2.37,0,0,0,76.55,28.59Zm-32.18-9V33l.59-.11.37-.07,15.81-3.65a4.11,4.11,0,0,0,3.16-4.52l-1.06-8.49Zm-22.22,5a4.11,4.11,0,0,0,3.16,4.52L41.12,32.8l.64.12L42,33l.06-.56V19.63L23.22,16.14Zm43.34-8.91,1.08,8.63a6.43,6.43,0,0,1-.4,3.16l-.15.38.33.22a41.79,41.79,0,0,1,4.72,3.7l.95.86-.11-1.28c0-.14,0-.29,0-.44a4.65,4.65,0,0,1,3.17-4.41l.34-.12V13.89ZM2.16,9.91l41,7.59L84.29,9.91,43.23,2.31Z"/></g></g></svg>