<svg xmlns="http://www.w3.org/2000/svg" viewBox="0 0 124.7 103.5"><title>2-2</title><g id="Layer_2" data-name="Layer 2"><g id="Layer_1-2" data-name="Layer 1"><path d="M75.6,103.5a1.4,1.4,0,0,1-1.4-1.4V70.3a1.4,1.4,0,0,1,1.4-1.4H92.76V53.15H31.94V68.91H49.1a1.4,1.4,0,0,1,1.4,1.4v31.8a1.4,1.4,0,0,1-1.4,1.4H12a1.4,1.4,0,0,1-1.4-1.4V70.3a1.4,1.4,0,0,1,1.4-1.4H29.15V53.15H1.4a1.4,1.4,0,1,1,0-2.79H61V34.59H43.8a1.4,1.4,0,0,1-1.4-1.4V1.4A1.4,1.4,0,0,1,43.8,0H80.9a1.4,1.4,0,0,1,1.4,1.4V33.2a1.4,1.4,0,0,1-1.4,1.4H63.75V50.35h59.56a1.4,1.4,0,1,1,0,2.79H95.55V68.91h17.16a1.4,1.4,0,0,1,1.4,1.4v31.8a1.4,1.4,0,0,1-1.4,1.4Zm1.4-2.79h34.31v-29H77Zm-63.61,0H47.7v-29H13.39ZM45.19,31.8H79.51v-29H45.19Z"/></g></g></svg>