<svg xmlns="http://www.w3.org/2000/svg" viewBox="0 0 104.2 77.92"><title>3-2</title><g id="Layer_2" data-name="Layer 2"><g id="Layer_1-2" data-name="Layer 1"><path d="M94.83,41.94,76.71,23.82a.91.91,0,0,0-1.55.64V49.55a.91.91,0,0,0,1.46.71l4.6-3.6,4,7.23a.91.91,0,0,0,1.2.37l5.44-2.72a.9.9,0,0,0,.46-.54.92.92,0,0,0-.07-.71l-3.78-6.81h5.71a.91.91,0,0,0,.64-1.55Zm-7.89-.26A.91.91,0,0,0,86.15,43l4.07,7.33-3.81,1.91-4.11-7.4a.91.91,0,0,0-.61-.45l-.18,0a.91.91,0,0,0-.56.19l-4,3.11v-21l15,15H86.95Z"/><g id="Notebook"><path d="M103,77.92a1.22,1.22,0,0,1-.52-.12C93,73.42,84.32,71.3,76,71.3a45.55,45.55,0,0,0-23.29,6.45l-.13.05-.19.08a2.44,2.44,0,0,1-.32,0l-.31,0-.16-.07-.17-.07a45.57,45.57,0,0,0-23.28-6.44C20,71.29,11.1,73.48,1.77,77.8a1.22,1.22,0,0,1-.52.12A1.25,1.25,0,0,1,0,76.67V6.53A1.24,1.24,0,0,1,.75,5.39,64.1,64.1,0,0,1,26.26,0,69.66,69.66,0,0,1,52,5.15l.15.06.15-.06A69.64,69.64,0,0,1,77.94,0a64.12,64.12,0,0,1,25.51,5.39,1.24,1.24,0,0,1,.75,1.14V76.67A1.24,1.24,0,0,1,103,77.92ZM26.29,2.49A61.53,61.53,0,0,0,2.74,7.25l-.25.1V74.75L3,74.51a64.08,64.08,0,0,1,25.13-5.63,47.75,47.75,0,0,1,22.1,5.37l.58.3V7.38l-.25-.1A66.93,66.93,0,0,0,26.29,2.49ZM76,68.88a64.12,64.12,0,0,1,25.13,5.63l.56.24V7.36l-.25-.1A61.49,61.49,0,0,0,77.91,2.49,66.91,66.91,0,0,0,53.6,7.28l-.25.1V74.55l.58-.3A47.75,47.75,0,0,1,76,68.88Z"/></g></g></g></svg>