<svg xmlns="http://www.w3.org/2000/svg" viewBox="0 0 103 93"><title>3-3</title><g id="Layer_2" data-name="Layer 2"><g id="Layer_1-2" data-name="Layer 1"><path d="M40.45,83.56a1.32,1.32,0,0,1-1.31-1.46l.95-8.94H7.46A7.47,7.47,0,0,1,0,65.7V7.46A7.47,7.47,0,0,1,7.46,0H95.54A7.47,7.47,0,0,1,103,7.46V65.7a7.47,7.47,0,0,1-7.46,7.46H64.72l.95,8.94a1.32,1.32,0,0,1-1.31,1.46Zm1.47-2.64h21l-.82-7.76H42.74ZM2.64,65.7a4.83,4.83,0,0,0,4.82,4.82H95.54a4.83,4.83,0,0,0,4.82-4.82V62.31H2.64ZM7.46,2.64A4.83,4.83,0,0,0,2.64,7.46V59.67h97.72V7.46a4.83,4.83,0,0,0-4.82-4.82Z"/><path d="M12.87,93a1.32,1.32,0,0,1-1.17-1.93l4.46-8.59a1.32,1.32,0,0,1,1.17-.71H92.49a1.32,1.32,0,0,1,1.17.71l4.46,8.59A1.32,1.32,0,0,1,97,93ZM15,90.36H94.78l-3.09-5.95H18.14Z"/></g></g></svg>