<svg xmlns="http://www.w3.org/2000/svg" viewBox="0 0 78.76 100"><title>3-4</title><g id="Layer_2" data-name="Layer 2"><g id="Layer_1-2" data-name="Layer 1"><path d="M33.88,50.11a.74.74,0,0,1-.23,0h0s0-.06,0-.11,0-2.6,0-2.63h5.07V27.47l-5.2,2a1.8,1.8,0,0,1-.45.13c-.57-1.59-.76-2.25-.83-2.5L37,25.16a8.48,8.48,0,0,1,3.2-.75h.33c1.29,0,1.77.5,1.77,1.85V47.35h4l.23,0s0,0,0,.08,0,2.65,0,2.66H33.88Z"/><path d="M24.7,100h-.15a1.15,1.15,0,0,1-1-.84L18.91,81.69,1.45,86.37a1.18,1.18,0,0,1-.3,0,1.15,1.15,0,0,1-1-1.73L12.6,63.13l-.49-.52a37.26,37.26,0,1,1,54.55,0l-.49.52L78.61,84.68a1.15,1.15,0,0,1-1,1.73,1.17,1.17,0,0,1-.3,0L59.86,81.69,55.18,99.14a1.14,1.14,0,0,1-1,.84h-.15a1.16,1.16,0,0,1-1-.58L39.37,75.69,25.69,99.42A1.16,1.16,0,0,1,24.7,100ZM63.58,65.56a37,37,0,0,1-20.74,8.79l-1.51.14L53.67,95.86,57.93,80A1.15,1.15,0,0,1,59,79.13a1.12,1.12,0,0,1,.3,0l15.88,4.25L64.47,64.8ZM19.72,79.13a1.15,1.15,0,0,1,1.11.85l4.25,15.88L37.4,74.49l-1.51-.14a37,37,0,0,1-20.71-8.79l-.89-.76L3.54,83.42l15.88-4.25A1.15,1.15,0,0,1,19.72,79.13ZM39.38,2.31a35,35,0,1,0,35,35A35,35,0,0,0,39.38,2.31Z"/></g></g></svg>