<svg xmlns="http://www.w3.org/2000/svg" viewBox="0 0 134.08 80.62"><title>4-34</title><g id="Layer_2" data-name="Layer 2"><g id="Layer_1-2" data-name="Layer 1"><path d="M123.06,13.52a1.37,1.37,0,0,1-1.19-.69L117,4.28a3.29,3.29,0,0,0-2.85-1.56,6.19,6.19,0,0,0-3,1l-2,1.18L109,5c-4.48,2.63-8,4.71-11.31,4.71a7.19,7.19,0,0,1-1.9-.25,1.36,1.36,0,0,1,.36-2.67,1.42,1.42,0,0,1,.36,0,4.38,4.38,0,0,0,1.16.15c2.58,0,5.9-2,9.43-4.06l2.16-1.27A9.81,9.81,0,0,1,114.17,0a6.13,6.13,0,0,1,5.23,2.92l4.84,8.57a1.36,1.36,0,0,1-1.18,2Z"/><path d="M64.53,80.62C63,80.62,62,80,45.38,70.41L45,70.17C39.53,67,32.48,62.93,23.27,57.62c-5.26-3-6.25-6.49-7.13-9.54-.74-2.59-1.44-5-4.43-6.76L3.81,36.76l-.42-.24a6.58,6.58,0,0,1-3.16-4,8.15,8.15,0,0,1,1.1-6.24C7.49,15.65,7.89,14.93,11.79,8l2.87-5.09A5.87,5.87,0,0,1,19.86,0a7.77,7.77,0,0,1,2.5.43l-.08,0,2,.89.2.12h0c.3.17,1.2.68,3.87,2.24l.33.19C30.91,5.17,34,6.95,36.4,6.95a12.61,12.61,0,0,0,3.14-.69,30.49,30.49,0,0,1,9.14-1.56h.39c.9,0,1.37.05,9.19.93l8.71,1c3.77-.41,6.63-.73,8.9-1l.56-.06c6-.69,7.63-.87,8.92-.87.44,0,.86,0,1.41,0a1.4,1.4,0,0,1,1,.45,1.34,1.34,0,0,1,.35,1,1.36,1.36,0,0,1-1.36,1.29l-.38,0c-.3,0-.55,0-.84,0-1.26,0-3.28.23-14.46,1.49L55.43,10.65a4.52,4.52,0,0,0-4.1,4.55c0,1.89,1.28,4.23,4.76,4.57l18.14,2.32a1.36,1.36,0,0,1,.51,2.52l-5,2.89L95.28,42.24a7.17,7.17,0,0,1-.23,12.55l-.73.39.57.6a7.21,7.21,0,0,1,2,5.61l-.1,1.19,1-.6c2.13-1.23,4-2.27,5.54-3.16,10.14-5.75,10.26-5.86,12.27-12.42l.54-1.75A11.5,11.5,0,0,1,121,39l8.32-4.8a3.84,3.84,0,0,0,1.89-2.35,5.53,5.53,0,0,0-.81-4.18l-3.9-6.76A1.36,1.36,0,0,1,127,19a1.36,1.36,0,0,1,1.86.5l3.9,6.76a8,8,0,0,1,1.12,6.19,6.85,6.85,0,0,1-3.06,4l-8.45,4.87a8.84,8.84,0,0,0-3.62,4.14l-.22.71c-.46,1.46-1.41,4.49-1.46,4.62a13.84,13.84,0,0,1-6.25,6.82C90.94,69.07,88.58,70.44,87.53,71.05l-.95.55-.08.17A7.19,7.19,0,0,1,80,75.83c-2,0-3.2-.7-5.54-2.08L73.15,73l-.93-.54V73.5A7.2,7.2,0,0,1,65,80.62ZM19.88,2.72A3.4,3.4,0,0,0,17,4.26L13.84,9.91c-3.56,6.32-3.56,6.32-7.26,12.71l-2.9,5c-1.59,2.75-1.19,5.19,1.06,6.52l1.65,1L13.07,39a11.36,11.36,0,0,1,4.85,5.64l1.63,5.21a11.24,11.24,0,0,0,5.07,5.45c10.34,6,17.93,10.35,23.5,13.58l.73.42c14.92,8.64,14.92,8.64,15.82,8.64H65a4.47,4.47,0,0,0,2.23-8.34L42.64,55.35a1.36,1.36,0,0,1-.5-1.85,1.36,1.36,0,0,1,1.18-.68A1.35,1.35,0,0,1,44,53L77.8,72.51a4.45,4.45,0,0,0,2.24.62,4.53,4.53,0,0,0,3.89-2.32,4.31,4.31,0,0,0,0-4.43l-.07-.13c-.5-.93-.5-.93-16.12-9.92l-.28-.16L48.76,45.41a1.36,1.36,0,0,1-.5-1.86,1.37,1.37,0,0,1,1.18-.68,1.35,1.35,0,0,1,.68.18l20.78,12,2.25,1.3C88.09,65,88.09,65,88.59,65.08a4.81,4.81,0,0,0,1.09.13A4.48,4.48,0,0,0,92,64.59a4.47,4.47,0,0,0,0-7.72L55.26,35.7a1.36,1.36,0,0,1-.5-1.85,1.36,1.36,0,0,1,1.86-.5L75.77,44.41c14.13,8.16,14.13,8.16,14.48,8.26a4.55,4.55,0,0,0,1.49.26,4.49,4.49,0,0,0,4.08-2.77A4.28,4.28,0,0,0,95,45.41c-.38-.46-.38-.46-14.77-8.75l-20.87-12a1.36,1.36,0,0,1-.68-1.22l0-.57-2.83-.36c-3.73-.37-6.35-2.51-7-5.73a7.35,7.35,0,0,1,3.43-7.91l1.7-.95L52,7.66a32.24,32.24,0,0,0-3.65-.26,21.59,21.59,0,0,0-5.07.65l-2.08.59a18.78,18.78,0,0,1-5,1c-2.33,0-4.87-1.06-10.46-4.37C22.65,3.47,21.38,2.72,19.88,2.72Z"/></g></g></svg>