<?xml version="1.0" encoding="utf-8"?>
<!-- Generator: Adobe Illustrator 21.0.2, SVG Export Plug-In . SVG Version: 6.00 Build 0)  -->
<svg version="1.1" id="Capa_1" xmlns="http://www.w3.org/2000/svg" xmlns:xlink="http://www.w3.org/1999/xlink" x="0px" y="0px"
	 viewBox="0 0 512 512" style="enable-background:new 0 0 512 512;" xml:space="preserve">
<g>
	<g>
		<path d="M362.5,414.1c-4.4,0-8,3.6-8,8v25.6c0,4.4,3.6,8,8,8c4.4,0,8-3.6,8-8v-25.6C370.5,417.7,366.9,414.1,362.5,414.1z"/>
	</g>
</g>
<g>
	<g>
		<path d="M226.3,56.1c-79.1,0-143.9,64.3-144.3,143.5l-25.6,84.3c-0.8,2.4-0.4,4.8,1.2,6.8c1.6,2,4,3.2,6.4,3.2h33.2v36.4
			c0,13.2,5.2,25.6,14.4,34.8c9.2,9.2,21.6,14.4,34.8,14.4c0,0,0,0,0.4,0h36.8l0,0c3.6,0,6.8,1.2,9.2,3.6c2.4,2.4,4,5.6,4,9.2v55.9
			c0,4.4,3.6,8,8,8c4.4,0,8-3.6,8-8v-55.9c0-7.6-2.8-14.8-8.4-20.4c-5.2-5.2-12.4-8.4-20-8.4l0,0h-36.8l0,0
			c-8.8,0-17.2-3.6-23.6-9.6c-6.4-6.4-10-14.8-10-23.6v-44c0-4.4-3.6-8-8-8H75.6l22.8-75.1c0.4-0.8,0.4-1.6,0.4-2.4v-0.4
			c0-71.1,57.5-128.7,128.7-128.7c4.4,0,8-3.6,8-8C233.9,59.7,230.7,56.1,226.3,56.1z"/>
	</g>
</g>
<g>
	<g>
		<path d="M336.2,121.2c-1.6-1.6-3.6-2.4-5.6-2.4c-2,0-4,0.8-5.6,2.4c-1.6,1.6-2.4,3.6-2.4,5.6c0,2,0.8,4,2.4,5.6
			c1.6,1.6,3.6,2.4,5.6,2.4c2,0,4-0.8,5.6-2.4c1.6-1.6,2.4-3.6,2.4-5.6C338.6,124.4,337.8,122.4,336.2,121.2z"/>
	</g>
</g>
<g>
	<g>
		<path d="M451.7,119.6L334.6,56.9c-2.4-1.2-5.2-1.2-7.2,0l-117.1,62.7c-2.4,1.2-4,4-4,6.8s1.6,5.6,4,6.8l46,24.8v51.1
			c-22.4,20.8-35.2,50-35.2,80.3c0,60.7,49.2,109.9,109.9,109.9s109.9-49.2,109.9-109.9c0-30.8-12.8-59.5-35.2-80.3V158l34.4-18.4
			v35.2c0,4.4,3.6,8,8,8s8-3.6,8-8v-48C455.7,123.6,454.1,121.2,451.7,119.6z M267.8,219.9l38,16.8h-18.4h-34.4
			C257.4,230.3,262.2,224.7,267.8,219.9z M271.4,204.3v-38l55.5,29.6c1.2,0.8,2.4,0.8,3.6,0.8c1.2,0,2.4-0.4,3.6-0.8l55.5-29.6v36.4
			l0,0c-0.8,0.4-1.6,1.2-2.4,2c-0.4,0.4-0.4,0.8-0.8,0.8l-56.3,24.8L271.4,204.3z M367.7,251.9c2.4,12,3.6,24.8,3.6,38
			c0,13.2-1.2,26-3.6,38h-74.3c-2.4-12-3.6-24.8-3.6-38c0-13.2,1.2-26,3.6-38H367.7z M244.3,327.8c-5.2-11.6-8-24.4-8-38
			c0-13.2,2.8-26,8-38h33.2c-2.4,12-3.2,24.8-3.2,38c0,13.2,1.2,26,3.2,38H244.3z M253.1,343.4h28c2.4,8,4.8,15.2,8,22
			c2,4.4,4.4,8.4,6.8,12.4C278.6,370.6,263.8,358.6,253.1,343.4z M358.1,358.6c-7.6,16-17.6,25.6-27.2,25.6
			c-9.6,0-19.6-9.2-27.2-25.6c-2.4-4.8-4.4-10-6-15.2h66.3C362.1,349,360.1,353.8,358.1,358.6z M365.3,377.8
			c2.4-3.6,4.8-7.6,6.8-12.4c3.2-6.8,6-14,8-22h28C397.7,358.6,382.9,370.6,365.3,377.8z M424.9,289.9c0,13.6-2.8,26.4-8,38h-33.2
			c2-12,3.2-24.8,3.2-38c0-13.2-1.2-26-3.2-38h33.6C422.5,263.9,424.9,276.7,424.9,289.9z M408.5,236.3h-34.4h-18.4l38-16.8
			C399.3,224.7,404.1,230.3,408.5,236.3z M362.5,134.4h53.9l-85.9,46l-100.7-53.9l100.7-53.9l85.9,46h-53.9c-4.4,0-8,3.6-8,8
			C355,130.8,358.5,134.4,362.5,134.4z"/>
	</g>
</g>
<g>
	<g>
		<path d="M453.3,203.9c-1.6-1.6-3.6-2.4-5.6-2.4c-2,0-4,0.8-5.6,2.4c-1.6,1.6-2.4,3.6-2.4,5.6s0.8,4,2.4,5.6
			c1.6,1.6,3.6,2.4,5.6,2.4c2,0,4-0.8,5.6-2.4c1.6-1.6,2.4-3.6,2.4-5.6S454.9,205.5,453.3,203.9z"/>
	</g>
</g>
<g>
	<g>
		<path d="M150.4,197.9c-1.6-1.6-3.6-2.4-5.6-2.4s-4,0.8-5.6,2.4c-1.6,1.6-2.4,3.6-2.4,5.6s0.8,4,2.4,5.6c1.6,1.6,3.6,2.4,5.6,2.4
			s4-0.8,5.6-2.4c1.6-1.6,2.4-3.6,2.4-5.6S152,199.5,150.4,197.9z"/>
	</g>
</g>
</svg>
