<?xml version="1.0" encoding="utf-8"?>
<!-- Generator: Adobe Illustrator 21.0.2, SVG Export Plug-In . SVG Version: 6.00 Build 0)  -->
<svg version="1.1" id="Capa_1" xmlns="http://www.w3.org/2000/svg" xmlns:xlink="http://www.w3.org/1999/xlink" x="0px" y="0px"
	 viewBox="0 0 512 512" style="enable-background:new 0 0 512 512;" xml:space="preserve">
<g>
	<g>
		<path d="M413.2,374.4c4.4-6,6.8-13.2,6.8-21.1v-46.7c0-4.4-3.6-8-8-8h-34.7c-16,0-29.1,13.2-29.1,29.1v25.5c0,8,2.4,15.2,6.8,21.1
			c-5.2,0.8-10.4,2.4-15.2,5.2c-10.8-16-28.7-27.1-49.1-29.1c0,0,0,0-0.4,0c7.2-8,11.6-18.7,11.6-30.7V256c0-4.4-3.6-8-8-8h-47.5
			c-20.3,0-36.7,16.4-36.7,36.7v34.7c0,11.6,4.4,22.3,11.6,30.7c0,0,0,0-0.4,0c-20.3,2-38.3,13.2-49.1,29.1
			c-4.8-2.4-10-4.4-15.2-5.2c4.4-6,6.8-13.2,6.8-21.1v-46.7c0-4.4-3.6-8-8-8h-34.7c-16,0-29.1,13.2-29.1,29.1v25.5
			c0,8,2.4,15.2,6.8,21.1c-23.9,4-42.7,24.7-42.7,50.2v23.1c0,4.4,3.6,8,8,8h384c4.4,0,8-3.6,8-8v-23.1
			C455.9,399.2,437.5,378.4,413.2,374.4z M108.5,328.2c0-7.6,6-13.6,13.6-13.6h27.1v9.6c0,4.8-3.6,8.4-8.4,8.4h-32.3L108.5,328.2
			L108.5,328.2z M108.5,347.7h32.3c2.8,0,6-0.4,8.4-1.6v7.2c0,11.2-9.2,20.3-20.3,20.3s-20.3-9.2-20.3-20.3V347.7z M133.6,389.2
			l-5.2,5.2l-5.2-5.2H133.6z M161.9,416.3v23.5H72.6v-15.2c0-17.5,12.8-31.9,29.5-34.7l21.1,21.1c1.6,1.6,3.6,2.4,5.6,2.4
			s4-0.8,5.6-2.4l21.1-21.1c3.6,0.8,7.2,2,10.8,3.6C163.1,400.4,161.9,408.3,161.9,416.3z M256.4,350.1c-16.7,0-30.3-13.6-30.3-30.3
			v-10.4h46.3c5.2,0,10-1.2,14.4-3.6v14C286.8,336.6,273.2,350.1,256.4,350.1z M270,365.7l-13.6,13.6l-13.6-13.6H270z M226.1,285.1
			L226.1,285.1c0-11.6,9.6-21.1,21.1-21.1h39.5v15.6c0,8-6.4,14.4-14.4,14.4h-46.7v-8.8H226.1z M335.4,439.8h-15.2H192.6h-15.2
			v-15.6h50.6c4.4,0,8-3.6,8-8s-3.6-8-8-8h-50.2c3.2-22.3,21.1-39.5,43.5-42.7l29.5,29.5c1.6,1.6,3.6,2.4,5.6,2.4s4-0.8,5.6-2.4
			l29.5-29.5c24.7,3.2,43.9,24.7,43.9,50.2L335.4,439.8L335.4,439.8z M363.7,328.2c0-7.6,6-13.6,13.6-13.6h27.1v9.6
			c0,4.8-3.6,8.4-8.4,8.4h-32.3L363.7,328.2L363.7,328.2z M363.7,347.7H396c2.8,0,6-0.4,8.4-1.6v7.2c0,11.2-9.2,20.3-20.3,20.3
			c-11.2,0-20.3-9.2-20.3-20.3V347.7L363.7,347.7z M389.2,389.2l-5.2,5.2l-5.2-5.2H389.2z M351,439.8v-23.5c0-8-1.6-16-4-22.7
			c3.2-1.6,6.8-2.8,10.8-3.6l21.1,21.1c1.6,1.6,3.6,2.4,5.6,2.4s4-0.8,5.6-2.4l21.1-21.1c16.7,2.8,29.5,17.1,29.5,34.7v15.2H351z"/>
	</g>
</g>
<g>
	<g>
		<path d="M294.7,107.6c-3.2-3.2-8-3.2-11.2,0l-38.3,38.3l-16.4-16.4c-3.2-3.2-8-3.2-11.2,0c-3.2,3.2-3.2,8,0,11.2l21.9,21.9
			c1.6,1.6,3.6,2.4,5.6,2.4s4-0.8,5.6-2.4l43.9-43.9C297.9,115.6,297.9,110.4,294.7,107.6z"/>
	</g>
</g>
<g>
	<g>
		<path d="M288.4,63.4c-4-1.6-8.4,0-10.4,4s0,8.4,4,10.4c22.7,10,37.1,32.7,37.1,57.4c0,34.7-28.3,62.6-62.6,62.6
			c-34.7,0-62.6-28.3-62.6-62.6c0-24.7,14.4-47.1,37.1-57c4-1.6,5.6-6.4,4-10.4c-1.6-4-6.4-5.6-10.4-4
			c-27.9,12.8-46.3,40.7-46.3,71.4c0,43.1,35.1,78.2,78.2,78.2s78.2-35.1,78.2-78.2C334.6,104.1,316.7,75.7,288.4,63.4z"/>
	</g>
</g>
<g>
	<g>
		<path d="M256.8,56.6L256.8,56.6c-4.4,0-8,3.6-8,8c0,4.4,3.6,8,8,8h0.4l0,0c4.4,0,7.6-3.6,8-7.6C264.4,60.2,260.8,56.6,256.8,56.6z
			"/>
	</g>
</g>
<g>
	<g>
		<path d="M262,411.1c-1.6-1.6-3.6-2.4-5.6-2.4s-4,0.8-5.6,2.4c-1.6,1.6-2.4,3.6-2.4,5.6s0.8,4,2.4,5.6s3.6,2.4,5.6,2.4
			s4-0.8,5.6-2.4c1.6-1.6,2.4-3.6,2.4-5.6S263.2,412.3,262,411.1z"/>
	</g>
</g>
</svg>
