<?xml version="1.0" encoding="utf-8"?>
<!-- Generator: Adobe Illustrator 21.0.2, SVG Export Plug-In . SVG Version: 6.00 Build 0)  -->
<svg version="1.1" id="Capa_1" xmlns="http://www.w3.org/2000/svg" xmlns:xlink="http://www.w3.org/1999/xlink" x="0px" y="0px"
	 viewBox="0 0 512 512" style="enable-background:new 0 0 512 512;" xml:space="preserve">
<g>
	<g>
		<path d="M72.3,174.7c-1.6-1.6-4-2.8-6.8-2.8c-2.8,0-4.8,1.2-6.8,2.8c-1.6,1.6-2.8,4-2.8,6.8c0,2.8,1.2,4.8,2.8,6.8
			c1.6,1.6,4,2.8,6.8,2.8c2.8,0,4.8-1.2,6.8-2.8c1.6-1.6,2.8-4,2.8-6.8C75.1,178.7,74.3,176.3,72.3,174.7z"/>
	</g>
</g>
<g>
	<g>
		<path d="M427.9,14.3H237.1c-5.2,0-9.6,4.4-9.6,9.6s4.4,9.6,9.6,9.6h190.8c5.2,0,9.6,4.4,9.6,9.6v426.4c0,5.2-4.4,9.6-9.6,9.6H84.7
			c-5.2,0-9.6-4.4-9.6-9.6V217.1c0-5.2-4.4-9.6-9.6-9.6c-5.2,0-9.6,4.4-9.6,9.6v252.4c0,15.6,12.8,28.4,28.4,28.4h343.2
			c15.6,0,28.4-12.8,28.4-28.4V42.7C456.3,27.1,443.5,14.3,427.9,14.3z"/>
	</g>
</g>
<g>
	<g>
		<path d="M256.3,52.3c-6.4,0-12.8,0.4-19.2,1.6c-5.2,0.8-8.8,5.6-8,10.8c0.8,5.2,5.6,8.8,10.8,8c5.2-0.8,10.8-1.2,16.4-1.2
			c58.8,0,106.8,48,106.8,106.8c0,26-9.6,50-25.2,68.4c-6.8-12-16.4-22-28-30c-6.8-4.8-14-8.4-21.6-11.2c8.4-8.4,14-20,14-33.2v-9.2
			c0-25.6-20.8-46.4-46.4-46.4s-46.4,20.8-46.4,46.4v9.2c0,12.8,5.2,24.8,14,33.2c-7.6,2.8-14.8,6.4-21.6,11.2
			c-11.6,8-21.2,18.4-28,30.4c-12-14-20.4-31.6-23.6-50.8c-0.8-5.2-5.6-8.8-10.8-7.6c-5.2,0.8-8.8,5.6-7.6,10.8
			c4.8,28.8,20,55.6,42.4,74.4c22.8,19.2,51.6,30,81.6,30c69.2,0,125.6-56.4,125.6-125.6S325.5,52.3,256.3,52.3z M229.1,162.7
			c0-15.2,12.4-27.2,27.2-27.2c15.2,0,27.2,12.4,27.2,27.2v9.2c0,15.2-12.4,27.2-27.2,27.2c-15.2,0-27.2-12.4-27.2-27.2L229.1,162.7
			L229.1,162.7z M256.3,284.2c-25.6,0-49.2-8.8-67.6-24c12.8-25.6,38.4-42,67.6-42s54.8,16.4,67.6,42
			C305.5,275,281.9,284.2,256.3,284.2z"/>
	</g>
</g>
<g>
	<g>
		<path d="M343.5,389.8h-134c-5.2,0-9.6,4.4-9.6,9.6s4.4,9.6,9.6,9.6h134c5.2,0,9.6-4.4,9.6-9.6S348.7,389.8,343.5,389.8z"/>
	</g>
</g>
<g>
	<g>
		<path d="M175.9,339.8c-1.6-1.6-4-2.8-6.8-2.8s-4.8,1.2-6.8,2.8c-1.6,1.6-2.8,4-2.8,6.8c0,2.4,1.2,4.8,2.8,6.8
			c1.6,1.6,4,2.8,6.8,2.8s4.8-1.2,6.8-2.8c1.6-1.6,2.8-4,2.8-6.8C178.7,343.8,177.5,341.4,175.9,339.8z"/>
	</g>
</g>
<g>
	<g>
		<path d="M175.9,392.6c-1.6-1.6-4-2.8-6.8-2.8c-2.4,0-4.8,1.2-6.8,2.8c-1.6,1.6-2.8,4-2.8,6.8c0,2.4,1.2,4.8,2.8,6.8
			c1.6,1.6,4,2.8,6.8,2.8s4.8-1.2,6.8-2.8c1.6-1.6,2.8-4,2.8-6.8C178.7,396.6,177.5,394.2,175.9,392.6z"/>
	</g>
</g>
<g>
	<g>
		<path d="M343.5,337h-134c-5.2,0-9.6,4.4-9.6,9.6s4.4,9.6,9.6,9.6h134c5.2,0,9.6-4.4,9.6-9.6C352.7,341,348.7,337,343.5,337z"/>
	</g>
</g>
<g>
	<g>
		<path d="M167.1,68.7c-3.6-3.6-9.6-3.6-13.2,0l-30.8,30.8l-10.4-10.4c-3.6-3.6-9.6-3.6-13.2,0c-3.6,3.6-3.6,9.6,0,13.2l17.2,17.2
			c2,2,4.4,2.8,6.8,2.8c2.4,0,4.8-0.8,6.8-2.8l37.2-37.2C171.1,78.3,171.1,72.3,167.1,68.7z"/>
	</g>
</g>
<g>
	<g>
		<path d="M133.5,14.3c-42.8,0-77.2,34.8-77.2,77.2c0,42.8,34.8,77.2,77.2,77.2c42.8,0,77.2-34.8,77.2-77.2
			C211.1,49.1,176.3,14.3,133.5,14.3z M133.5,150.3c-32.4,0-58.4-26.4-58.4-58.4c0-32.4,26.4-58.4,58.4-58.4
			c32.4,0,58.4,26.4,58.4,58.4S165.9,150.3,133.5,150.3z"/>
	</g>
</g>
</svg>
