<?xml version="1.0" encoding="utf-8"?>
<!-- Generator: Adobe Illustrator 21.0.2, SVG Export Plug-In . SVG Version: 6.00 Build 0)  -->
<svg version="1.1" id="Capa_1" xmlns="http://www.w3.org/2000/svg" xmlns:xlink="http://www.w3.org/1999/xlink" x="0px" y="0px"
	 viewBox="0 0 512 512" style="enable-background:new 0 0 512 512;" xml:space="preserve">
<g>
	<g>
		<path d="M379.4,172.3c4.4,0,8-3.6,8-8V79.6c0-12.8-10.4-23.6-23.6-23.6H79.6C66.8,56,56,66.4,56,79.6v352.9
			c0,12.8,10.4,23.6,23.6,23.6h284.2c12.8,0,23.6-10.4,23.6-23.6V375c0-4.4-3.6-8-8-8c-4.4,0-8,3.6-8,8v57.6c0,4.4-3.6,8-8,8H79.2
			c-4.4,0-8-3.6-8-8V79.6c0-4.4,3.6-8,8-8h284.6c4.4,0,8,3.6,8,8v84.7C371.4,168.7,375,172.3,379.4,172.3z"/>
	</g>
</g>
<g>
	<g>
		<path d="M221.5,98c-39.6,0-71.9,32.4-71.9,71.9c0,20.4,8.8,39.2,22.4,52.4c0.4,0.4,0.4,0.4,0.8,0.8c12.8,11.6,30,18.8,48.4,18.8
			s35.6-7.2,48.4-18.8c0.4-0.4,0.4-0.4,0.8-0.8c14-13.2,22.4-31.6,22.4-52.4C293.5,130.3,261.1,98,221.5,98z M221.5,226.3
			c-12.8,0-24.4-4.4-34-11.6c6.8-12,19.6-19.6,34-19.6s27.2,7.6,34,19.6C245.9,221.9,234.3,226.3,221.5,226.3z M209.1,166.7v-5.2
			c0-6.8,5.6-12.4,12.4-12.4s12.4,5.6,12.4,12.4v5.2c0,6.8-5.6,12.4-12.4,12.4S209.1,173.9,209.1,166.7z M266.7,203.5
			c-5.6-8.4-13.6-15.2-23.2-19.2c3.6-4.8,6-10.8,6-17.2v-5.2c0-15.6-12.8-28-28-28c-15.6,0-28,12.8-28,28v5.2c0,6.4,2,12.4,6,17.2
			c-9.2,4-17.2,10.8-23.2,19.2c-6.8-9.2-10.8-20.8-10.8-33.2c0-31.2,25.2-56.4,56.4-56.4s56.4,25.2,56.4,56.4
			C277.9,182.3,273.5,193.9,266.7,203.5z"/>
	</g>
</g>
<g>
	<g>
		<path d="M263.9,397.7h-42c-4.4,0-8,3.6-8,8c0,4.4,3.6,8,8,8h42c4.4,0,8-3.6,8-8C271.5,401.3,267.9,397.7,263.9,397.7z"/>
	</g>
</g>
<g>
	<g>
		<path d="M263.9,354.2H153.2c-4.4,0-8,3.6-8,8c0,4.4,3.6,8,8,8h110.7c4.4,0,8-3.6,8-8C271.5,357.8,267.9,354.2,263.9,354.2z"/>
	</g>
</g>
<g>
	<g>
		<path d="M263.9,310.6H153.2c-4.4,0-8,3.6-8,8c0,4.4,3.6,8,8,8h110.7c4.4,0,8-3.6,8-8C271.5,313.8,267.9,310.6,263.9,310.6z"/>
	</g>
</g>
<g>
	<g>
		<path d="M125.2,269c-1.6-1.6-3.6-2.4-5.6-2.4c-2,0-4,0.8-5.6,2.4s-2.4,3.6-2.4,5.6c0,2,0.8,4,2.4,5.6c1.6,1.6,3.6,2.4,5.6,2.4
			c2,0,4-0.8,5.6-2.4s2.4-3.6,2.4-5.6C127.6,272.6,126.4,270.6,125.2,269z"/>
	</g>
</g>
<g>
	<g>
		<path d="M125.2,312.6c-1.6-1.6-3.6-2.4-5.6-2.4c-2,0-4,0.8-5.6,2.4c-1.6,1.6-2.4,3.6-2.4,5.6c0,2,0.8,4,2.4,5.6
			c1.6,1.6,3.6,2.4,5.6,2.4c2,0,4-0.8,5.6-2.4c1.6-1.6,2.4-3.6,2.4-5.6C127.6,316.2,126.4,314.2,125.2,312.6z"/>
	</g>
</g>
<g>
	<g>
		<path d="M125.2,356.6c-1.6-1.6-3.6-2.4-5.6-2.4c-2,0-4,0.8-5.6,2.4s-2.4,3.6-2.4,5.6c0,2,0.8,4,2.4,5.6c1.6,1.6,3.6,2.4,5.6,2.4
			c2,0,4-0.8,5.6-2.4s2.4-3.6,2.4-5.6C127.6,360.2,126.4,357.8,125.2,356.6z"/>
	</g>
</g>
<g>
	<g>
		<path d="M263.9,266.6H153.2c-4.4,0-8,3.6-8,8c0,4.4,3.6,8,8,8h110.7c4.4,0,8-3.6,8-8C271.5,270.2,267.9,266.6,263.9,266.6z"/>
	</g>
</g>
<g>
	<g>
		<path d="M439.4,157.9c-7.6-4.4-16.4-5.6-24.8-3.2c-8.4,2.4-15.6,7.6-20,15.2l-98.3,169.9c-0.4,0.8-0.8,2-0.8,3.2l-6.8,62
			c-0.4,3.2,1.2,6,4,7.6c1.2,0.8,2.4,1.2,4,1.2c1.6,0,3.2-0.4,4.8-1.6l50.4-36.8c0.8-0.8,1.6-1.6,2-2.4l98.3-170.3
			C460.5,186.7,454.9,166.7,439.4,157.9z M305.9,389l3.6-32.4l22.8,13.2L305.9,389z M343.4,358.2L313.8,341l78.7-136.7l29.6,17.2
			L343.4,358.2z M437.8,194.7l-7.6,13.2l-29.6-17.2l7.6-13.2c2.4-4,6-6.8,10.4-8c4.4-1.2,9.2-0.4,13.2,1.6c4,2.4,6.8,6,8,10.4
			C440.6,186.3,440.2,190.7,437.8,194.7z"/>
	</g>
</g>
</svg>
