<?xml version="1.0" encoding="utf-8"?>
<!-- Generator: Adobe Illustrator 21.0.2, SVG Export Plug-In . SVG Version: 6.00 Build 0)  -->
<svg version="1.1" id="Capa_1" xmlns="http://www.w3.org/2000/svg" xmlns:xlink="http://www.w3.org/1999/xlink" x="0px" y="0px"
	 viewBox="0 0 512 512" style="enable-background:new 0 0 512 512;" xml:space="preserve">
<g>
	<g>
		<path d="M427.6,14.4H84.4C68.8,14.4,56,27.2,56,42.8v426.4c0,15.6,12.8,28.4,28.4,28.4h343.2c15.6,0,28.4-12.8,28.4-28.4V42.8
			C456,27.2,443.2,14.4,427.6,14.4z M370,48l52.4,52.4h-43.2c-5.2,0-9.6-4.4-9.6-9.6V48H370z M437.2,469.2c0,5.2-4.4,9.6-9.6,9.6
			H84.4c-5.2,0-9.6-4.4-9.6-9.6V42.8c0-5.2,4.4-9.6,9.6-9.6h266.8v57.6c0,15.6,12.8,28.4,28.4,28.4h57.6V469.2z M437.2,88.4
			l-54.8-54.8H428c5.2,0,9.6,4.4,9.6,9.6v45.2H437.2z"/>
	</g>
</g>
<g>
	<g>
		<path d="M399.2,192H294c-5.2,0-9.6,4.4-9.6,9.6c0,5.2,4.4,9.6,9.6,9.6h105.2c5.2,0,9.6-4.4,9.6-9.6C408.4,196,404.4,192,399.2,192
			z"/>
	</g>
</g>
<g>
	<g>
		<path d="M300.8,149.2c-1.6-1.6-4-2.8-6.8-2.8s-4.8,1.2-6.8,2.8c-2,1.6-2.8,4-2.8,6.8s1.2,4.8,2.8,6.8c1.6,1.6,4,2.8,6.8,2.8
			s4.8-1.2,6.8-2.8c1.6-1.6,2.8-4,2.8-6.8S302.4,151.2,300.8,149.2z"/>
	</g>
</g>
<g>
	<g>
		<path d="M399.2,146.4h-67.6c-5.2,0-9.6,4.4-9.6,9.6c0,5.2,4.4,9.6,9.6,9.6h67.6c5.2,0,9.6-4.4,9.6-9.6
			C408.4,150.8,404.4,146.4,399.2,146.4z"/>
	</g>
</g>
<g>
	<g>
		<path d="M399.2,237.2H296.8c-5.2,0-9.6,4.4-9.6,9.6c0,5.2,4.4,9.6,9.6,9.6h102.4c5.2,0,9.6-4.4,9.6-9.6
			C408.4,241.2,404.4,237.2,399.2,237.2z"/>
	</g>
</g>
<g>
	<g>
		<path d="M401.6,282.4H112.8c-5.2,0-9.6,4.4-9.6,9.6s4.4,9.6,9.6,9.6h288.8c5.2,0,9.6-4.4,9.6-9.6
			C410.8,286.8,406.8,282.4,401.6,282.4z"/>
	</g>
</g>
<g>
	<g>
		<path d="M399.2,327.6H112.8c-5.2,0-9.6,4.4-9.6,9.6s4.4,9.6,9.6,9.6h286.4c5.2,0,9.6-4.4,9.6-9.6
			C408.4,332,404.4,327.6,399.2,327.6z"/>
	</g>
</g>
<g>
	<g>
		<path d="M401.6,372.8H112.8c-5.2,0-9.6,4.4-9.6,9.6s4.4,9.6,9.6,9.6h288.8c5.2,0,9.6-4.4,9.6-9.6
			C410.8,377.2,406.8,372.8,401.6,372.8z"/>
	</g>
</g>
<g>
	<g>
		<path d="M408.4,421.2c-1.6-1.6-4-2.8-6.8-2.8c-2.4,0-4.8,1.2-6.8,2.8c-1.6,1.6-2.8,4-2.8,6.8c0,2.4,1.2,4.8,2.8,6.8
			c1.6,1.6,4,2.8,6.8,2.8c2.4,0,4.8-1.2,6.8-2.8c1.6-1.6,2.8-4,2.8-6.8C410.8,425.2,410,422.8,408.4,421.2z"/>
	</g>
</g>
<g>
	<g>
		<path d="M363.6,418.4H112.8c-5.2,0-9.6,4.4-9.6,9.6s4.4,9.6,9.6,9.6h250.8c5.2,0,9.6-4.4,9.6-9.6
			C372.8,422.4,368.8,418.4,363.6,418.4z"/>
	</g>
</g>
<g>
	<g>
		<path d="M248.8,74.8h-138c-5.2,0-9.6,4.4-9.6,9.6v162.4c0,5.2,4.4,9.6,9.6,9.6h138.4c5.2,0,9.6-4.4,9.6-9.6V84.4
			C258,79.2,254,74.8,248.8,74.8z M239.2,237.2H119.6v-12c1.6-20.8,18.8-37.2,40-37.2h39.2c22,0,40,18,40,40v9.2H239.2z M164.4,154
			v-6c0-8.4,6.8-15.2,15.2-15.2s15.2,6.8,15.2,15.2v6c0,8.4-6.8,15.2-15.2,15.2S164.4,162.4,164.4,154z M239.2,184.8
			c-8-7.6-18.4-12.8-29.6-14.8c2.4-4.8,4-10.4,4-16v-6c0-18.8-15.2-34-34-34s-34,15.2-34,34v6c0,5.6,1.6,11.2,4,16
			c-11.2,2-21.6,7.2-29.6,14.8V93.6h119.2L239.2,184.8L239.2,184.8z"/>
	</g>
</g>
</svg>
