<?xml version="1.0" encoding="utf-8"?>
<!-- Generator: Adobe Illustrator 21.0.2, SVG Export Plug-In . SVG Version: 6.00 Build 0)  -->
<svg version="1.1" id="Capa_1" xmlns="http://www.w3.org/2000/svg" xmlns:xlink="http://www.w3.org/1999/xlink" x="0px" y="0px"
	 viewBox="0 0 512 512" style="enable-background:new 0 0 512 512;" xml:space="preserve">
<g>
	<g>
		<path d="M373.5,350.1c-1.6-1.6-3.6-2.4-5.6-2.4c-2,0-4,0.8-5.6,2.4c-1.6,1.6-2.4,3.6-2.4,5.6c0,2,0.8,4,2.4,5.6
			c1.6,1.6,3.6,2.4,5.6,2.4c2,0,4-0.8,5.6-2.4s2.4-3.6,2.4-5.6C375.9,353.7,375.1,351.7,373.5,350.1z"/>
	</g>
</g>
<g>
	<g>
		<path d="M422.6,56.2H161.5c-4.4,0-8,3.6-8,8s3.6,8,8,8h261.1c9.6,0,17.2,7.6,17.2,17.2v201.2H71.7V89.4c0-9.6,7.6-17.2,17.2-17.2
			h8.4c4.4,0,8-3.6,8-8s-3.6-8-8-8h-8.4c-18,0-32.7,14.8-32.7,32.7v241.9c0,18,14.8,32.7,32.7,32.7h121v37.9
			c-23.2,2.8-40.7,22.8-40.7,46.3c0,4.4,3.6,8,8,8h158.1c4.4,0,8-3.6,8-8c0-24.4-18.8-44.3-42.3-46.7v-37.5h36.3c4.4,0,8-3.6,8-8
			c0-4.4-3.6-8-8-8H89.6c-9.6,0-17.2-7.6-17.2-17.2v-25.1h368.1v25.1c0,9.6-7.6,17.2-17.2,17.2h-27.5c-4.4,0-8,3.6-8,8
			c0,4.4,3.6,8,8,8h27.5c18,0,32.7-14.8,32.7-32.7V89C455.3,71,440.5,56.2,422.6,56.2z M225.4,363.6h59.1v37.5h-59.1L225.4,363.6
			L225.4,363.6z M295.6,416.3c14.4,0,26.7,10,30.3,23.6H185.4c3.6-13.6,15.6-23.6,30.3-23.6H295.6z"/>
	</g>
</g>
<g>
	<g>
		<path d="M133.1,58.6c-1.6-1.6-3.6-2.4-5.6-2.4c-2,0-4,0.8-5.6,2.4c-1.6,1.6-2.4,3.6-2.4,5.6c0,2,0.8,4,2.4,5.6
			c1.6,1.6,3.6,2.4,5.6,2.4c2,0,4-0.8,5.6-2.4c1.6-1.6,2.4-3.6,2.4-5.6C135.5,62.2,134.7,59.8,133.1,58.6z"/>
	</g>
</g>
<g>
	<g>
		<path d="M260.5,325.3c-1.6-1.6-3.6-2.4-5.6-2.4s-4,0.8-5.6,2.4s-2.4,3.6-2.4,5.6c0,2,0.8,4,2.4,5.6c1.6,1.6,3.6,2.4,5.6,2.4
			s4-0.8,5.6-2.4c1.6-1.6,2.4-3.6,2.4-5.6C262.9,328.9,261.7,326.5,260.5,325.3z"/>
	</g>
</g>
<g>
	<g>
		<path d="M236.1,85.8H133.9c-4.4,0-8,3.6-8,8v23.6h-20.4c-4.4,0-8,3.6-8,8v130.5c0,4.4,3.6,8,8,8h102.2c4.4,0,8-3.6,8-8v-23.6h20.4
			c4.4,0,8-3.6,8-8V93.4C244.1,89.4,240.5,85.8,236.1,85.8z M200.2,247.9h-86.6V132.5h49.5v29.1c0,4.4,3.6,8,8,8h29.1V247.9z
			 M179.1,154.1v-10.4l10.4,10.4H179.1z M228.6,216.7h-12.8v-55.1c0-2-0.8-4-2.4-5.6l-36.7-37.1c-1.6-1.6-3.6-2.4-5.6-2.4h-29.5V101
			h86.6v115.8H228.6z"/>
	</g>
</g>
<g>
	<g>
		<path d="M405.4,85.8H303.2c-4.4,0-8,3.6-8,8v23.6h-20.4c-4.4,0-8,3.6-8,8v130.5c0,4.4,3.6,8,8,8h102.2c4.4,0,8-3.6,8-8v-23.6h20.4
			c4.4,0,8-3.6,8-8V93.4C413.4,89.4,409.8,85.8,405.4,85.8z M369.5,247.9h-86.6V132.5h49.5v29.1c0,4.4,3.6,8,8,8h29.1L369.5,247.9
			L369.5,247.9z M348.3,154.1v-10.4l10.4,10.4H348.3z M397.4,216.7H385v-55.1c0-2-0.8-4-2.4-5.6l-36.7-37.1
			c-1.6-1.6-3.6-2.4-5.6-2.4h-29.5V101h86.6V216.7z"/>
	</g>
</g>
</svg>
