<?xml version="1.0" encoding="utf-8"?>
<!-- Generator: Adobe Illustrator 21.0.2, SVG Export Plug-In . SVG Version: 6.00 Build 0)  -->
<svg version="1.1" id="Capa_1" xmlns="http://www.w3.org/2000/svg" xmlns:xlink="http://www.w3.org/1999/xlink" x="0px" y="0px"
	 viewBox="0 0 512 512" style="enable-background:new 0 0 512 512;" xml:space="preserve">
<g>
	<g>
		<path d="M190.2,353.7C189.8,353.7,189.8,353.7,190.2,353.7c7.2-8.4,12-19.6,12-32v-35.6c0-21.2-17.2-38.4-38.4-38.4h-49.2
			c-4.4,0-8,3.6-8,8v65.9c0,12,4.8,23.2,12,31.6c0,0,0,0-0.4,0c-34.8,3.2-62.3,32.8-62.3,68.3V454c0,4.4,3.6,8,8,8h179.8
			c4.4,0,8-3.6,8-8v-32.4C252.2,386.4,225,356.8,190.2,353.7z M154.3,353.7c-17.2,0-31.6-14-31.6-31.6v-14.4
			c4.4,2.4,9.6,3.6,14.8,3.6h48.4v10.8C185.8,339.3,171.8,353.7,154.3,353.7z M168.2,369.6l-14,14l-14-14H168.2z M122.7,264.1
			L122.7,264.1h40.8c12,0,22,10,22,22v8.8h-48.4c-8,0-14.8-6.8-14.8-14.8C122.7,280.5,122.7,264.1,122.7,264.1z M72.3,446.4V422
			c0-26.4,20-48.4,45.6-51.9l30.8,30.8c1.6,1.6,3.6,2.4,5.6,2.4s4-0.8,5.6-2.4l30.8-30.8c25.6,3.6,45.6,25.6,45.6,51.9v24.4H72.3z"
			/>
	</g>
</g>
<g>
	<g>
		<path d="M416,359.6c6.4-6,10-14.8,10-24v-32.8c0-18.8-9.2-35.2-23.6-45.2c0-0.4,0-1.2,0-1.6V237c18.8-2.4,33.6-18.4,33.6-38v-80.7
			c0-21.2-17.2-38.4-38.4-38.4H272.1c-21.2,0-38.4,17.2-38.4,38.4V199c0,21.2,17.2,38.4,38.4,38.4H364l10.8,10.8c-1.2,0-2.8,0-4,0
			c-30.4,0-54.7,24.8-54.7,54.7v32.8c0,9.6,4,18,10,24c-23.6,10.8-40,34.8-40,61.9v32.8c0,4.4,3.6,8,8,8H448c4.4,0,8-3.6,8-8v-32.8
			C455.9,394.4,439.6,370.8,416,359.6z M373.6,223.4c-1.6-1.6-3.6-2.4-5.6-2.4h-95.1c-12.4,0-22-10-22-22v-80.7c0-12.4,10-22,22-22
			h125.5c12.4,0,22,10,22,22v0.4h-51.1c-4.4,0-8,3.6-8,8c0,4.4,3.6,8,8,8h51.1V199c0,12.4-10,22-22,22h-3.2c-4.4,0-8,3.6-8,8v7.6
			L373.6,223.4z M332.5,302.9c0-21.2,17.2-38.8,38.8-38.8c21.2,0,38.8,17.2,38.8,38.8v32.8c0,10-8,18-18,18h-4.8h-32.4h-4.8l0,0
			c-10,0-18-8-18-18v-32.8H332.5z M440,446.4L440,446.4H302.9v-24.8c0-28.8,23.6-52.3,52.3-52.3h32.4c28.8,0,52.3,23.6,52.3,52.3
			L440,446.4L440,446.4z"/>
	</g>
</g>
<g>
	<g>
		<path d="M221.4,49.6h-93.9c-21.2,0-38.4,17.2-38.4,38.4v80.7c0,19.6,14.8,35.6,33.6,38v19.2c0,3.2,2,6.4,4.8,7.6
			c0.8,0.4,2,0.8,3.2,0.8c2,0,4-0.8,5.6-2.4L161,207h42c4.4,0,8-3.6,8-8s-3.6-8-8-8h-45.2c-2,0-4,0.8-5.6,2.4l-13.2,13.2V199
			c0-4.4-3.6-8-8-8h-3.2c-12.4,0-22-10-22-22V88.3c0-12.4,10-22,22-22h93.9c4.4,0,8-3.6,8-8C229.4,53.2,225.8,49.6,221.4,49.6z"/>
	</g>
</g>
<g>
	<g>
		<path d="M258.5,52c-1.6-1.6-3.6-2.4-5.6-2.4s-4.4,0.8-5.6,2.4c-1.6,1.6-2.4,3.6-2.4,5.6s0.8,4.4,2.4,5.6c1.6,1.6,3.6,2.4,5.6,2.4
			s4-0.8,5.6-2.4c1.6-1.6,2.4-3.6,2.4-5.6C260.9,55.6,260.1,53.6,258.5,52z"/>
	</g>
</g>
<g>
	<g>
		<path d="M340.9,121.1c-1.6-1.6-3.6-2.4-5.6-2.4c-2,0-4.4,0.8-5.6,2.4c-1.6,1.6-2.4,3.6-2.4,5.6s0.8,4.4,2.4,5.6
			c1.6,1.6,3.6,2.4,5.6,2.4c2,0,4.4-0.8,5.6-2.4c1.6-1.6,2.4-3.6,2.4-5.6S342.5,122.3,340.9,121.1z"/>
	</g>
</g>
</svg>
