<?xml version="1.0" encoding="utf-8"?>
<!-- Generator: Adobe Illustrator 21.0.2, SVG Export Plug-In . SVG Version: 6.00 Build 0)  -->
<svg version="1.1" id="Capa_1" xmlns="http://www.w3.org/2000/svg" xmlns:xlink="http://www.w3.org/1999/xlink" x="0px" y="0px"
	 viewBox="0 0 512 512" style="enable-background:new 0 0 512 512;" xml:space="preserve">
<g>
	<g>
		<path d="M403.6,86.6c-1.6-1.6-3.6-2.4-5.6-2.4s-4,0.8-5.6,2.4c-1.6,1.6-2.4,3.6-2.4,5.6s0.8,4,2.4,5.6c1.6,1.6,3.6,2.4,5.6,2.4
			s4-0.8,5.6-2.4c1.6-1.6,2.4-3.6,2.4-5.6S405.2,88.2,403.6,86.6z"/>
	</g>
</g>
<g>
	<g>
		<path d="M431.2,187.9c-1.6-1.6-3.6-2.4-5.6-2.4c-2,0-4,0.8-5.6,2.4c-1.6,1.6-2.4,3.6-2.4,5.6s0.8,4,2.4,5.6
			c1.6,1.6,3.6,2.4,5.6,2.4c2,0,4-0.8,5.6-2.4c1.6-1.6,2.4-3.6,2.4-5.6C433.2,191.5,432.4,189.5,431.2,187.9z"/>
	</g>
</g>
<g>
	<g>
		<path d="M88.5,147.9c-4.4,0-8,3.6-8,8v56.5c0,4.4,3.6,8,8,8c4.4,0,8-3.6,8-8v-56.5C96.5,151.5,92.9,147.9,88.5,147.9z"/>
	</g>
</g>
<g>
	<g>
		<path d="M241,298.8c-1.6-1.6-3.6-2.4-5.6-2.4s-4,0.8-5.6,2.4c-1.6,1.6-2.4,3.6-2.4,5.6c0,2,0.8,4,2.4,5.6c1.6,1.6,3.6,2.4,5.6,2.4
			s4-0.8,5.6-2.4c1.6-1.6,2.4-3.6,2.4-5.6C243.4,302.4,242.6,300.4,241,298.8z"/>
	</g>
</g>
<g>
	<g>
		<path d="M429.6,55.8H82.5c-14.8,0-26.4,12-26.4,26.4v203.4c0,14.8,12,26.4,26.4,26.4h24.8c1.6,9.6,6,18.4,12,25.6l-35.6,12
			c-16.4,5.6-27.6,20.8-27.6,38.4v60.1c0,4.4,3.6,8,8,8h191.8c4.4,0,8-3.6,8-8v-60.1c0-17.6-11.2-32.8-27.6-38.4l-35.6-12
			c8-9.2,12.8-21.2,12.8-34.4v-12c0-29.2-24-53.3-53.3-53.3c-15.6,0-29.6,6.8-39.2,17.2c0.8-1.2,1.2-2.4,1.2-4V71h308.3
			c6,0,10.8,4.8,10.8,10.8v203.4c0,6-4.8,10.8-10.8,10.8h-23.6V118.3c0-4.4-3.6-8-8-8c-4.4,0-8,3.6-8,8V296H263.9c-4.4,0-8,3.6-8,8
			s3.6,8,8,8h165.8c14.8,0,26.4-12,26.4-26.4V82.2C456,67.8,444,55.8,429.6,55.8z M106.5,291.6v5.2h-24c-6,0-10.8-4.8-10.8-10.8
			V82.6c0-6,4.8-10.8,10.8-10.8h23.6V252c0,4.4,3.6,8,8,8c2,0,3.6-0.8,4.8-1.6C110.9,267.2,106.5,278.8,106.5,291.6z M122.1,291.6
			c0-20.8,16.8-37.6,37.6-37.6s37.6,16.8,37.6,37.6v12c0,20.8-16.8,37.6-37.6,37.6s-37.6-16.8-37.6-37.6V291.6z M133.3,349.7
			c7.6,4.4,16.8,7.2,26.4,7.2c9.6,0,18.4-2.4,26.4-7.2l45.2,14.8c10,3.2,16.8,12.8,16.8,23.6v52.5h-26.8v-28.8c0-4.4-3.6-8-8-8
			c-4.4,0-8,3.6-8,8v28.8h-92.1v-28.8c0-4.4-3.6-8-8-8c-4.4,0-8,3.6-8,8v28.8H70.5v-52.5c0-10.8,6.8-20,16.8-23.6L133.3,349.7z"/>
	</g>
</g>
<g>
	<g>
		<path d="M223.8,133.1h-39.2c-4.4,0-8,3.6-8,8s3.6,8,8,8h39.2c4.4,0,8-3.6,8-8C231.8,136.3,228.2,133.1,223.8,133.1z"/>
	</g>
</g>
<g>
	<g>
		<path d="M223.8,163.9h-39.2c-4.4,0-8,3.6-8,8c0,4.4,3.6,8,8,8h39.2c4.4,0,8-3.6,8-8C231.8,167.5,228.2,163.9,223.8,163.9z"/>
	</g>
</g>
<g>
	<g>
		<path d="M223.8,194.7h-39.2c-4.4,0-8,3.6-8,8c0,4.4,3.6,8,8,8h39.2c4.4,0,8-3.6,8-8C231.8,198.3,228.2,194.7,223.8,194.7z"/>
	</g>
</g>
<g>
	<g>
		<path d="M327.1,133.1h-39.2c-4.4,0-8,3.6-8,8s3.6,8,8,8h39.2c4.4,0,8-3.6,8-8C335.1,136.3,331.5,133.1,327.1,133.1z"/>
	</g>
</g>
<g>
	<g>
		<path d="M327.1,163.9h-39.2c-4.4,0-8,3.6-8,8c0,4.4,3.6,8,8,8h39.2c4.4,0,8-3.6,8-8C335.1,167.5,331.5,163.9,327.1,163.9z"/>
	</g>
</g>
<g>
	<g>
		<path d="M327.1,194.7h-39.2c-4.4,0-8,3.6-8,8c0,4.4,3.6,8,8,8h39.2c4.4,0,8-3.6,8-8C335.1,198.3,331.5,194.7,327.1,194.7z"/>
	</g>
</g>
<g>
	<g>
		<path d="M359.2,97.8h-66.1c-12.8,0-25.6,4.4-35.6,12.4l-1.6,1.6l-1.6-1.2c-10-8-22.8-12.4-35.6-12.4h-66.1c-4.4,0-8,3.6-8,8v109.3
			c0,4.4,3.6,8,8,8s8-3.6,8-8V113.9h58.1c9.2,0,18.4,3.2,25.6,9.2l3.6,2.8v114.9c-8.8-5.2-19.2-8.4-29.2-8.4h-8.4c-4.4,0-8,3.6-8,8
			c0,4.4,3.6,8,8,8h8.4c9.2,0,18.4,3.2,25.6,9.2l6.4,5.2l0,0c0.4,0.4,0.8,0.8,1.6,0.8c1.2,0.4,2.4,0.8,3.2,0.8
			c1.6,0,3.6-0.4,4.8-1.6l6.4-5.2c7.2-6,16.4-9.2,25.6-9.2h66.1c4.4,0,8-3.6,8-8V106.3C366.8,101.4,363.6,97.8,359.2,97.8z
			 M351.1,232.4h-58.1c-10.4,0-20.4,2.8-29.2,8.4V125.9l3.6-2.8c7.2-6,16.4-9.2,25.6-9.2h58.1V232.4z"/>
	</g>
</g>
</svg>
